<svg width="30" height="30" viewBox="0 0 30 30" fill="none" xmlns="http://www.w3.org/2000/svg">
<path d="M7.10449 14.9869C7.10449 19.3478 10.6526 22.8959 15.0135 22.8959C19.3746 22.8959 22.9225 19.3478 22.9225 14.9869C22.9225 10.6258 19.3746 7.07788 15.0135 7.07788C10.6526 7.07788 7.10449 10.6258 7.10449 14.9869ZM15.9409 16.3135C15.8524 16.2249 15.7297 16.1448 15.5729 16.0732C15.4161 16.0017 15.2307 15.9354 15.016 15.874C14.8013 15.8127 14.5679 15.7447 14.3159 15.6696C13.9819 15.5673 13.6924 15.4568 13.447 15.3375C13.2017 15.2183 12.9989 15.0803 12.8389 14.9235C12.6787 14.7669 12.5594 14.5861 12.4812 14.3817C12.4029 14.1773 12.3637 13.9388 12.3637 13.6662C12.3637 13.2849 12.4352 12.9476 12.5784 12.6546C12.7215 12.3616 12.9156 12.1147 13.1609 11.9135C13.4063 11.7127 13.6906 11.561 14.0142 11.4587C14.0527 11.4468 14.0911 11.4356 14.1298 11.4248V10.0659H15.8892V11.3985C16.0977 11.4427 16.2994 11.4964 16.4928 11.561C16.7175 11.6361 16.9272 11.7212 17.1213 11.8164C17.3156 11.9119 17.4944 12.0073 17.658 12.1028L16.9222 13.4927C16.9016 13.4655 16.8301 13.4145 16.7075 13.3394C16.5848 13.2646 16.4314 13.186 16.2474 13.1043C16.0636 13.0226 15.8624 12.951 15.6445 12.8896C15.4264 12.8283 15.2083 12.7976 14.9904 12.7976C14.3907 12.7976 14.0909 12.9988 14.0909 13.4007C14.0909 13.5234 14.1232 13.6255 14.1882 13.7074C14.2527 13.7892 14.3481 13.8624 14.4743 13.9272C14.6001 13.9919 14.7588 14.0514 14.9494 14.1059C15.1401 14.1606 15.3616 14.222 15.6139 14.2899C15.9613 14.3854 16.2746 14.4893 16.5541 14.6017C16.8336 14.7141 17.0702 14.8537 17.2646 15.0208C17.4587 15.1876 17.6086 15.3904 17.7141 15.6289C17.8198 15.8674 17.8725 16.1535 17.8725 16.4874C17.8725 16.8962 17.796 17.2421 17.6427 17.5247C17.4893 17.8076 17.2865 18.0358 17.0345 18.2095C16.7823 18.3833 16.4928 18.5094 16.1657 18.5877C16.0744 18.6096 15.9821 18.6279 15.8892 18.6437V20.0042H14.1298V18.6101C13.9222 18.5723 13.7185 18.524 13.5187 18.465C13.2529 18.3867 12.9957 18.2931 12.7469 18.1839C12.4981 18.075 12.2683 17.9488 12.057 17.8058L12.7929 16.3442C12.8201 16.3785 12.9087 16.443 13.0586 16.5385C13.2085 16.6339 13.3942 16.7294 13.6157 16.8246C13.8371 16.9203 14.084 17.0054 14.3566 17.0802C14.6292 17.1553 14.905 17.1926 15.1845 17.1926C15.7773 17.1926 16.0737 17.0123 16.0737 16.6509C16.0737 16.5144 16.0293 16.4021 15.9409 16.3135Z" fill="#F8CF03"/>
<path d="M15.8926 5.35904C20.5231 5.77858 24.2211 9.47662 24.6407 14.1074H29.9997C29.7885 10.4279 28.2559 6.99829 25.6288 4.37096C23.0014 1.74385 19.5719 0.211258 15.8926 0V5.35904Z" fill="#F8CF03"/>
<path d="M24.6409 15.8665C24.1951 20.787 20.0477 24.6551 15.013 24.6551C9.68191 24.6551 5.34484 20.318 5.34484 14.9869C5.34484 9.95245 9.21293 5.80489 14.1334 5.35903V0C10.4542 0.211257 7.02437 1.74385 4.39727 4.37117C1.56166 7.20656 0 10.9767 0 14.9869C0 18.9969 1.56166 22.767 4.39727 25.6027C7.23288 28.4383 11.003 29.9999 15.013 29.9999C19.0233 29.9999 22.7934 28.4383 25.629 25.6027C28.2561 22.9756 29.7887 19.5458 29.9999 15.8665H24.6409Z" fill="#F8CF03"/>
</svg>
