<svg width="24" height="24" viewBox="0 0 24 24" fill="none" xmlns="http://www.w3.org/2000/svg">
<path fill-rule="evenodd" clip-rule="evenodd" d="M5.46166 2.25002L5.52703 2.25005L5.58723 2.25003C5.91937 2.24988 6.1777 2.24977 6.4164 2.29189C7.31582 2.45061 8.07775 3.04551 8.44987 3.87958C8.54863 4.10093 8.61117 4.35157 8.69158 4.67382L8.69159 4.67383L8.69159 4.67384L8.70617 4.73225L9.11979 6.38672L9.12884 6.42291L9.12884 6.42293C9.26893 6.98319 9.38783 7.4587 9.445 7.86157C9.50588 8.29046 9.50764 8.70021 9.37074 9.12073C9.23383 9.54125 8.99117 9.87142 8.68946 10.1823C8.40605 10.4743 8.03 10.7886 7.5869 11.1591L7.55829 11.183L5.94606 12.5308C7.24937 14.8902 9.10985 16.7507 11.4692 18.054L12.8171 16.4418L12.841 16.4132C13.2115 15.9701 13.5258 15.594 13.8178 15.3106C14.1287 15.0089 14.4588 14.7663 14.8794 14.6294C15.2999 14.4924 15.7096 14.4942 16.1385 14.5551C16.5414 14.6123 17.0169 14.7311 17.5771 14.8712L17.5772 14.8712L17.5772 14.8713L17.6134 14.8803L19.2678 15.2939L19.3262 15.3085L19.3263 15.3085C19.6485 15.3889 19.8992 15.4515 20.1205 15.5502C20.9546 15.9223 21.5495 16.6843 21.7082 17.5837C21.7503 17.8224 21.7502 18.0807 21.7501 18.4129L21.75 18.4731L21.7501 18.5384C21.7503 18.9214 21.7504 19.2237 21.6839 19.5215C21.4418 20.6055 20.4384 21.5157 19.3361 21.6514C19.0337 21.6886 18.7739 21.6632 18.4507 21.6315L18.4506 21.6315L18.4506 21.6315L18.4038 21.6269C15.7641 21.3694 13.3885 20.7099 11.3192 19.6702C8.24504 18.1256 5.8745 15.755 4.32988 12.6809C3.29017 10.6116 2.63072 8.23596 2.37318 5.5963L2.3686 5.54952C2.33691 5.22628 2.31144 4.96642 2.34867 4.66401C2.48439 3.56164 3.3946 2.55831 4.47857 2.31618C4.77642 2.24965 5.07865 2.24982 5.46166 2.25002ZM12.8577 18.7319C14.5381 19.452 16.4399 19.9282 18.5494 20.134C18.9359 20.1717 19.0317 20.1776 19.1528 20.1627C19.6256 20.1044 20.1161 19.6594 20.22 19.1945C20.2459 19.0784 20.25 18.9515 20.25 18.4731C20.25 18.0524 20.2473 17.9363 20.231 17.8444C20.1589 17.4355 19.8885 17.0892 19.5093 16.9201C19.424 16.882 19.3121 16.8511 18.904 16.7491L17.2496 16.3355C16.6433 16.184 16.244 16.0851 15.9277 16.0402C15.6289 15.9978 15.4698 16.0146 15.3437 16.0557C15.2177 16.0967 15.0791 16.1768 14.8625 16.387C14.6333 16.6095 14.3687 16.9245 13.9679 17.4039L12.8577 18.7319ZM5.26822 11.1424L6.59618 10.0322C7.07559 9.63137 7.39063 9.36676 7.6131 9.13755C7.82334 8.92094 7.90338 8.78242 7.94442 8.65637C7.98546 8.53032 8.00231 8.37122 7.95989 8.07235C7.915 7.75611 7.81613 7.35674 7.66458 6.75052L7.25096 5.09605C7.14894 4.68797 7.11808 4.57604 7.08003 4.49074C6.91088 4.11162 6.56455 3.84121 6.15572 3.76907C6.06374 3.75283 5.94766 3.75005 5.52703 3.75005C5.0486 3.75005 4.92166 3.75418 4.80557 3.78011C4.34068 3.88395 3.89564 4.37452 3.83743 4.8473C3.82252 4.96843 3.82838 5.06417 3.86609 5.45064C4.07191 7.56018 4.54807 9.46194 5.26822 11.1424ZM13.2499 6.99999C13.2499 6.58578 13.5857 6.24999 13.9999 6.24999C15.0264 6.24999 15.9339 6.8889 16.5475 7.54437C16.891 7.91141 17.1821 8.32423 17.3909 8.73048C17.5921 9.12199 17.7499 9.57165 17.7499 9.99999C17.7499 10.4142 17.4141 10.75 16.9999 10.75C16.5857 10.75 16.2499 10.4142 16.2499 9.99999C16.2499 9.91004 16.2063 9.70708 16.0567 9.41609C15.9148 9.13983 15.7058 8.84025 15.4523 8.56942C14.9561 8.03924 14.4185 7.74999 13.9999 7.74999C13.5857 7.74999 13.2499 7.41421 13.2499 6.99999ZM13.9999 3.24999C13.5857 3.24999 13.2499 3.58578 13.2499 3.99999C13.2499 4.41421 13.5857 4.74999 13.9999 4.74999C16.8994 4.74999 19.2499 7.1005 19.2499 9.99999C19.2499 10.4142 19.5857 10.75 19.9999 10.75C20.4141 10.75 20.7499 10.4142 20.7499 9.99999C20.7499 6.27207 17.7278 3.24999 13.9999 3.24999Z" fill="#F2F2F2"/>
</svg>
