<svg width="30" height="30" viewBox="0 0 30 30" fill="none" xmlns="http://www.w3.org/2000/svg">
<path d="M26.25 7.5C26.25 11.0625 20.875 13.75 13.75 13.75C6.625 13.75 1.25 11.0625 1.25 7.5C1.25 3.9375 6.625 1.25 13.75 1.25C20.875 1.25 26.25 3.9375 26.25 7.5ZM16.25 26.25C10.9375 26.25 6.4 24.875 3.75 22.5625C3.825 26.1 9.16251 28.75 16.25 28.75C23.3375 28.75 28.6375 26.1125 28.75 22.6125C26.1375 24.875 21.7125 26.25 16.25 26.25ZM13.75 21.25C10.5339 21.3174 7.33832 20.7217 4.3625 19.5C5.9625 22.025 10.5375 23.75 16.25 23.75C23.375 23.75 28.75 21.0625 28.75 17.5C28.7398 16.727 28.4909 15.9761 28.0375 15.35C26.175 18.925 20.7875 21.25 13.75 21.25ZM15 16.25H13.75H12.5C7.6 16.0625 3.6125 14.725 1.25 12.6375C1.3625 16.1125 6.7 18.75 13.75 18.75C20.8 18.75 26.1375 16.1125 26.25 12.6125C23.8375 14.7 19.85 16.0375 15 16.25Z" fill="#F8CF03"/>
</svg>
