<svg width="30" height="30" viewBox="0 0 30 30" fill="none" xmlns="http://www.w3.org/2000/svg">
<path d="M12.1875 0C11.6697 0 11.25 0.419733 11.25 0.9375C11.25 1.45527 11.6697 1.875 12.1875 1.875H13.125V3.88302C6.76404 4.79323 1.875 10.2628 1.875 16.875C1.875 24.1237 7.75126 30 15 30C22.2487 30 28.125 24.1237 28.125 16.875C28.125 13.5877 26.9166 10.5828 24.9197 8.28017C24.9278 8.2726 24.9358 8.26486 24.9437 8.25695L25.6066 7.59404L26.2696 8.25695C26.6357 8.62307 27.2293 8.62307 27.5954 8.25695C27.9615 7.89083 27.9615 7.29724 27.5954 6.93112L24.9437 4.27947C24.5776 3.91336 23.984 3.91336 23.6179 4.27947C23.2518 4.64559 23.2518 5.23918 23.6179 5.6053L24.2808 6.26821L23.6179 6.93112C23.61 6.93905 23.6022 6.94708 23.5946 6.95522C21.738 5.34529 19.4247 4.24787 16.875 3.88302V1.875H17.8125C18.3303 1.875 18.75 1.45527 18.75 0.9375C18.75 0.419733 18.3303 0 17.8125 0H12.1875ZM15.9375 10.5L15.9375 16.875C15.9375 17.1236 15.8387 17.3621 15.6629 17.5379C15.4871 17.7137 15.2486 17.8125 15 17.8125H8.4375C7.91973 17.8125 7.5 17.3928 7.5 16.875C7.5 16.3572 7.91973 15.9375 8.4375 15.9375H14.0625L14.0625 10.5C14.0625 9.98219 14.4822 9.56245 15 9.56245C15.5177 9.56245 15.9375 9.98218 15.9375 10.5Z" fill="#F8CF03"/>
</svg>
